<svg width="69" height="69" viewBox="0 0 69 69" fill="none" xmlns="http://www.w3.org/2000/svg">
<path d="M38.6599 53.0234V66.3447H30.4687V47.302C30.2602 46.6492 29.4516 45.7674 27.9519 46.6494L18.9651 55.7638L13.0852 49.8838L24.3028 38.6659L38.6599 53.0234Z" fill="#5E7F86"/>
<path d="M66.3392 38.2824H47.297C46.6443 38.4908 45.7625 39.2994 46.6444 40.7993L55.7586 49.7863L49.8788 55.6663L38.6612 44.4484L53.0183 30.091H66.3392V38.2824Z" fill="#5E7F86"/>
<path d="M30.3387 24.3085L15.9816 38.6659H2.66064V30.4745H21.7029C22.3556 30.2661 23.2373 29.4574 22.3555 27.9576L13.2412 18.9693L19.1211 13.0893L30.3387 24.3085Z" fill="#5E7F86"/>
<path d="M38.7847 21.698C38.9931 22.3508 39.8017 23.2339 41.3015 22.352L50.2883 13.2362L56.1681 19.1162L44.9505 30.3354L30.5935 15.9767V2.65533H38.7847V21.698Z" fill="#5E7F86"/>
</svg>
